HIERARCHY
ROOT joint_Root
{
	OFFSET 0.0 0.0 0.0
	CHANNELS 6 Xposition Yposition Zposition Zrotation Xrotation Yrotation 
	JOINT Hips
	{
		OFFSET 4.5925 91.4895 -427.239
		CHANNELS 6 Xposition Yposition Zposition Zrotation Xrotation Yrotation 
		JOINT Spine
		{
			OFFSET 15.7357 0.0 0.0
			CHANNELS 6 Xposition Yposition Zposition Zrotation Xrotation Yrotation 
			JOINT Chest
			{
				OFFSET 8.98455 -0.406207 0.0
				CHANNELS 6 Xposition Yposition Zposition Zrotation Xrotation Yrotation 
				JOINT Neck
				{
					OFFSET 16.3773 0.0 0.0
					CHANNELS 6 Xposition Yposition Zposition Zrotation Xrotation Yrotation 
					JOINT Head
					{
						OFFSET 6.45672 0.0 0.0
						CHANNELS 6 Xposition Yposition Zposition Zrotation Xrotation Yrotation 
						End Site
						{
							OFFSET 0.0 0.0 0.0
						}
					}
				}
				JOINT Shoulder_L
				{
					OFFSET 12.9942 -0.242716 4.98039
					CHANNELS 6 Xposition Yposition Zposition Zrotation Xrotation Yrotation 
					JOINT UpperArm_L
					{
						OFFSET 5.34809 0.0 0.0
						CHANNELS 6 Xposition Yposition Zposition Zrotation Xrotation Yrotation 
						JOINT LowerArm_L
						{
							OFFSET 24.3286 1.87007e-05 0.0
							CHANNELS 6 Xposition Yposition Zposition Zrotation Xrotation Yrotation 
							JOINT Hand_L
							{
								OFFSET 22.2916 0.0 0.0
								CHANNELS 6 Xposition Yposition Zposition Zrotation Xrotation Yrotation 
								End Site
								{
									OFFSET 0.0 0.0 0.0
								}
							}
						}
					}
				}
				JOINT Shoulder_R
				{
					OFFSET 12.9945 -0.242716 -4.98039
					CHANNELS 6 Xposition Yposition Zposition Zrotation Xrotation Yrotation 
					JOINT UpperArm_R
					{
						OFFSET -5.34813 0.0 0.0
						CHANNELS 6 Xposition Yposition Zposition Zrotation Xrotation Yrotation 
						JOINT LowerArm_R
						{
							OFFSET -24.3289 0.000322201 0.0
							CHANNELS 6 Xposition Yposition Zposition Zrotation Xrotation Yrotation 
							JOINT Hand_R
							{
								OFFSET -22.2915 -0.000108084 0.0
								CHANNELS 6 Xposition Yposition Zposition Zrotation Xrotation Yrotation 
								End Site
								{
									OFFSET 0.0 0.0 0.0
								}
							}
						}
					}
				}
			}
		}
		JOINT UpperLeg_L
		{
			OFFSET -2.19248 -6.46944 0.0
			CHANNELS 6 Xposition Yposition Zposition Zrotation Xrotation Yrotation 
			JOINT LowerLeg_L
			{
				OFFSET 39.0811 0.0 -1.23785e-05
				CHANNELS 6 Xposition Yposition Zposition Zrotation Xrotation Yrotation 
				JOINT Foot_L
				{
					OFFSET 40.9854 0.0 -1.26872e-05
					CHANNELS 6 Xposition Yposition Zposition Zrotation Xrotation Yrotation 
					JOINT Toes_L
					{
						OFFSET 11.7543 0.0 0.0
						CHANNELS 6 Xposition Yposition Zposition Zrotation Xrotation Yrotation 
						End Site
						{
							OFFSET 0.0 0.0 0.0
						}
					}
				}
			}
		}
		JOINT UpperLeg_R
		{
			OFFSET -2.19251 6.46944 0.0
			CHANNELS 6 Xposition Yposition Zposition Zrotation Xrotation Yrotation 
			JOINT LowerLeg_R
			{
				OFFSET -39.0811 -0.00228153 -0.0401928
				CHANNELS 6 Xposition Yposition Zposition Zrotation Xrotation Yrotation 
				JOINT Foot_R
				{
					OFFSET -40.9854 0.0 0.0
					CHANNELS 6 Xposition Yposition Zposition Zrotation Xrotation Yrotation 
					JOINT Toes_R
					{
						OFFSET -11.7543 0.0 0.0
						CHANNELS 6 Xposition Yposition Zposition Zrotation Xrotation Yrotation 
						End Site
						{
							OFFSET 0.0 0.0 0.0
						}
					}
				}
			}
		}
	}
}
MOTION
Frames:	5
Frame Time:	0.0333333
0.000000 0.000000 0.000000 0.000000 0.000000 -0.000000 137.796000 89.127700 -33.396700 86.272200 4.300110 2.408800 15.735700 0.000005 -0.000001 80.482100 84.416900 -80.691000 8.984550 -0.406207 -0.000000 3.244580 -1.836100 -0.365335 16.377300 -0.000001 -0.000001 -0.431022 -8.476580 0.060261 6.456720 -0.000001 -0.000000 -6.550420 -9.879250 -0.148360 12.994200 -0.242716 4.980390 -91.565900 5.309260 -73.542900 5.348090 -0.000007 -0.000001 -60.505400 25.081400 -18.502500 24.328600 0.000019 0.000005 7.379370 17.884600 -22.870300 22.291600 -0.000001 0.000005 14.282100 5.199990 2.722410 12.994500 -0.242716 -4.980390 88.396600 8.928020 -79.775700 -5.348130 -0.000001 -0.000004 -65.470200 37.773600 -13.053300 -24.328900 0.000322 -0.000009 0.527591 1.312510 -22.147200 -22.291500 -0.000108 -0.000004 15.112200 5.353440 -1.458260 -2.192480 -6.469440 -0.000000 179.763000 -3.948700 -3.673340 39.081100 -0.000007 -0.000012 0.053792 -0.075724 35.388200 40.985400 -0.000006 -0.000013 8.935410 -0.670986 -77.876600 11.754300 -0.000000 0.000003 -1.930550 -2.503560 -16.651600 -2.192510 6.469440 -0.000001 -179.836000 9.494990 159.548000 -39.081100 -0.002282 -0.040193 0.047676 -0.015213 71.157600 -40.985400 0.000008 0.000006 8.441260 -5.343180 -50.522200 -11.754300 -0.000006 -0.000006 -0.024692 -0.192016 -24.428200
0.000000 0.000000 0.000000 0.000000 0.000000 -0.000000 138.017000 89.955600 -30.542700 85.967700 7.613060 1.574250 15.735700 0.000005 -0.000001 75.700500 84.623400 -75.633100 8.984550 -0.406207 -0.000000 2.658200 -2.656610 0.196304 16.377300 -0.000001 -0.000001 -0.689505 -8.999780 0.226592 6.456720 -0.000001 -0.000000 -6.398330 -10.154500 0.118401 12.994200 -0.242716 4.980390 -91.203400 4.393190 -74.666800 5.348090 -0.000007 -0.000001 -59.225200 26.969000 -24.977600 24.328600 0.000019 0.000005 8.079290 16.049300 -27.180100 22.291600 -0.000001 0.000005 14.429700 5.225780 2.063510 12.994500 -0.242716 -4.980390 88.336700 8.974850 -79.455400 -5.348130 -0.000001 -0.000004 -66.029500 33.798600 -8.557900 -24.328900 0.000322 -0.000009 1.556000 6.028420 -14.548600 -22.291500 -0.000108 -0.000004 13.280100 5.297910 0.134660 -2.192480 -6.469440 -0.000000 -179.581000 -1.911910 -1.054710 39.081100 -0.000007 -0.000012 0.040041 -0.065277 31.524800 40.985400 -0.000006 -0.000013 9.060560 0.955400 -75.539800 11.754300 -0.000000 0.000003 -0.988588 -1.215550 -17.360400 -2.192510 6.469440 -0.000001 -177.586000 9.759390 156.186000 -39.081100 -0.002282 -0.040193 0.030494 -0.012636 65.187600 -40.985400 0.000008 0.000006 9.618900 -5.361770 -55.064300 -11.754300 -0.000006 -0.000006 -0.023543 -0.186176 -24.186900
0.000000 0.000000 0.000000 0.000000 0.000000 -0.000000 138.210000 90.386800 -27.753400 86.004000 10.853500 0.584618 15.735700 0.000005 -0.000001 71.257900 84.771100 -71.026800 8.984550 -0.406207 -0.000000 2.147580 -3.369140 0.525024 16.377300 -0.000001 -0.000001 -1.249090 -9.516890 0.500407 6.456720 -0.000001 -0.000000 -6.560420 -10.308200 0.624061 12.994200 -0.242716 4.980390 -90.943100 3.703560 -75.704200 5.348090 -0.000007 -0.000001 -56.706100 28.915000 -31.850600 24.328600 0.000019 0.000005 8.755960 14.478200 -31.636500 22.291600 -0.000001 0.000005 13.808400 5.247160 1.507230 12.994500 -0.242716 -4.980390 88.271900 8.948850 -79.023600 -5.348130 -0.000001 -0.000004 -66.173700 29.024700 -3.869590 -24.328900 0.000322 -0.000009 1.518620 9.428850 -9.204940 -22.291500 -0.000108 -0.000004 13.440800 5.247380 1.497500 -2.192480 -6.469440 -0.000000 -179.010000 -0.368413 0.726906 39.081100 -0.000007 -0.000012 0.028360 -0.051411 28.882300 40.985400 -0.000006 -0.000013 8.944720 2.969810 -73.878800 11.754300 -0.000000 0.000003 -0.002875 -0.039187 -18.170400 -2.192510 6.469440 -0.000001 -176.409000 9.405750 153.562000 -39.081100 -0.002282 -0.040193 0.032396 -0.019027 56.891900 -40.985400 0.000008 0.000006 8.042850 -2.884960 -58.325400 -11.754300 -0.000006 -0.000006 -0.024535 -0.191226 -24.395600
0.000000 0.000000 0.000000 0.000000 0.000000 -0.000000 138.387000 90.286600 -24.875500 86.215500 13.903000 -0.278904 15.735700 0.000005 -0.000001 66.918900 84.799200 -66.599800 8.984550 -0.406207 -0.000000 1.819060 -4.091850 0.702826 16.377300 -0.000001 -0.000001 -1.914120 -9.902380 0.844570 6.456720 -0.000001 -0.000000 -6.915130 -10.369000 1.355490 12.994200 -0.242716 4.980390 -90.768600 3.206930 -76.514900 5.348090 -0.000007 -0.000001 -53.012400 30.520700 -38.656000 24.328600 0.000019 0.000005 9.877010 13.521200 -36.673200 22.291600 -0.000001 0.000005 13.568900 5.251700 1.387080 12.994500 -0.242716 -4.980390 88.230500 8.856080 -78.653400 -5.348130 -0.000001 -0.000004 -65.828400 23.970400 0.904027 -24.328900 0.000322 -0.000009 1.062670 10.002600 -6.101200 -22.291500 -0.000108 -0.000004 14.564800 5.207290 2.533230 -2.192480 -6.469440 -0.000000 -178.274000 0.515582 1.959690 39.081100 -0.000007 -0.000012 0.024175 -0.045678 27.890200 40.985400 -0.000006 -0.000013 9.063090 5.433260 -73.592200 11.754300 -0.000000 0.000003 -0.007276 -0.082029 -19.916400 -2.192510 6.469440 -0.000001 -175.756000 9.880330 151.569000 -39.081100 -0.002282 -0.040193 0.036698 -0.030406 47.722700 -40.985400 0.000008 0.000006 6.641340 0.657655 -59.755800 -11.754300 -0.000006 -0.000006 -0.023778 -0.187381 -24.236700
0.000000 0.000000 0.000000 0.000000 0.000000 -0.000000 138.573000 89.790200 -21.717500 86.443700 16.751200 -0.896294 15.735700 0.000005 -0.000001 62.283700 84.686000 -61.854300 8.984550 -0.406207 -0.000000 1.667840 -4.963110 0.930554 16.377300 -0.000001 -0.000001 -2.521140 -10.146100 1.097990 6.456720 -0.000001 -0.000000 -7.450450 -10.291300 2.165370 12.994200 -0.242716 4.980390 -90.652300 2.838800 -77.053700 5.348090 -0.000007 -0.000001 -49.593300 31.144900 -44.476800 24.328600 0.000019 0.000005 11.639200 13.298100 -41.842200 22.291600 -0.000001 0.000005 13.893100 5.265940 1.008440 12.994500 -0.242716 -4.980390 88.226800 8.588980 -78.288500 -5.348130 -0.000001 -0.000004 -65.026200 19.025400 5.453660 -24.328900 0.000322 -0.000009 0.806187 9.439820 -4.909710 -22.291500 -0.000108 -0.000004 15.636900 5.196870 2.797380 -2.192480 -6.469440 -0.000000 -177.378000 1.335650 3.154930 39.081100 -0.000007 -0.000012 0.021252 -0.040092 27.927000 40.985400 -0.000006 -0.000013 9.107480 7.702500 -74.175100 11.754300 -0.000000 0.000003 -0.013048 -0.125168 -21.680900 -2.192510 6.469440 -0.000001 -174.711000 11.458300 149.940000 -39.081100 -0.002282 -0.040193 0.030311 -0.033253 39.106900 -40.985400 0.000008 0.000006 5.023050 2.613160 -60.474300 -11.754300 -0.000006 -0.000006 -0.023302 -0.184937 -24.135700
